<mxfile host="app.diagrams.net" modified="2024-06-14T16:36:32.845Z" agent="Mozilla/5.0 (Windows NT 10.0; Win64; x64) AppleWebKit/537.36 (KHTML, like Gecko) Chrome/125.0.0.0 Safari/537.36" version="24.5.4" etag="wRjUSnM4fwnR8gmW5Lyr" type="github">
  <diagram name="Page-1" id="VNCDFEpME1YyyWWX_0lG">
    <mxGraphModel>
      <root>
        <mxCell id="0" />
        <mxCell id="1" parent="0" />
      </root>
    </mxGraphModel>
  </diagram>
</mxfile>
